<svg xmlns="http://www.w3.org/2000/svg" viewBox="0 0 520 420" width="520" height="420">
<rect x="0" y="0" width="520" height="420" fill="#ffffff" />
<text x="260" y="20" font-size="14" font-weight="700" fill="#212121" text-anchor="middle" font-family="sans-serif">Recall vs FPR — injecagent</text>
<line x1="60" y1="350" x2="480" y2="350" stroke="#eeeeee" stroke-width="1" />
<text x="52" y="354" font-size="10" fill="#757575" text-anchor="end" font-family="sans-serif">0%</text>
<line x1="60" y1="40" x2="60" y2="350" stroke="#eeeeee" stroke-width="1" />
<text x="60" y="366" font-size="10" fill="#757575" text-anchor="middle" font-family="sans-serif">0%</text>
<line x1="60" y1="272.5" x2="480" y2="272.5" stroke="#eeeeee" stroke-width="1" />
<text x="52" y="276.5" font-size="10" fill="#757575" text-anchor="end" font-family="sans-serif">25%</text>
<line x1="165" y1="40" x2="165" y2="350" stroke="#eeeeee" stroke-width="1" />
<text x="165" y="366" font-size="10" fill="#757575" text-anchor="middle" font-family="sans-serif">25%</text>
<line x1="60" y1="195" x2="480" y2="195" stroke="#eeeeee" stroke-width="1" />
<text x="52" y="199" font-size="10" fill="#757575" text-anchor="end" font-family="sans-serif">50%</text>
<line x1="270" y1="40" x2="270" y2="350" stroke="#eeeeee" stroke-width="1" />
<text x="270" y="366" font-size="10" fill="#757575" text-anchor="middle" font-family="sans-serif">50%</text>
<line x1="60" y1="117.5" x2="480" y2="117.5" stroke="#eeeeee" stroke-width="1" />
<text x="52" y="121.5" font-size="10" fill="#757575" text-anchor="end" font-family="sans-serif">75%</text>
<line x1="375" y1="40" x2="375" y2="350" stroke="#eeeeee" stroke-width="1" />
<text x="375" y="366" font-size="10" fill="#757575" text-anchor="middle" font-family="sans-serif">75%</text>
<line x1="60" y1="40" x2="480" y2="40" stroke="#eeeeee" stroke-width="1" />
<text x="52" y="44" font-size="10" fill="#757575" text-anchor="end" font-family="sans-serif">100%</text>
<line x1="480" y1="40" x2="480" y2="350" stroke="#eeeeee" stroke-width="1" />
<text x="480" y="366" font-size="10" fill="#757575" text-anchor="middle" font-family="sans-serif">100%</text>
<line x1="60" y1="350" x2="480" y2="350" stroke="#757575" stroke-width="1.5" />
<line x1="60" y1="40" x2="60" y2="350" stroke="#757575" stroke-width="1.5" />
<text x="270" y="388" font-size="11" fill="#757575" text-anchor="middle" font-family="sans-serif">FPR (benign blocked) — lower is better →</text>
<text x="16" y="195" font-size="11" fill="#757575" text-anchor="middle" font-family="sans-serif" transform="rotate(-90 16 195)">Recall (attacks blocked) — higher is better ↑</text>
<circle cx="356.47058823529414" cy="146.1764705882353" r="5" fill="#1565c0" stroke="#fff" stroke-width="1.5" />
<text x="356.47058823529414" y="136.1764705882353" font-size="9" fill="#1565c0" text-anchor="middle" font-family="sans-serif">protectai/deberta-v3-base-prompt-injection-v2 @0.5</text>
<circle cx="60" cy="40" r="5" fill="#e65100" stroke="#fff" stroke-width="1.5" />
<text x="60" y="56" font-size="9" fill="#e65100" text-anchor="middle" font-family="sans-serif">llm-fw cheap</text>
<circle cx="208.26" cy="40" r="5" fill="#e65100" stroke="#fff" stroke-width="1.5" />
<text x="208.26" y="30" font-size="9" fill="#e65100" text-anchor="middle" font-family="sans-serif">llm-fw classifier (judge off)</text>
<circle cx="60" cy="408" r="4" fill="#1565c0" />
<text x="68" y="411" font-size="9" fill="#212121" font-family="sans-serif">competitor</text>
<circle cx="150" cy="408" r="4" fill="#e65100" />
<text x="158" y="411" font-size="9" fill="#212121" font-family="sans-serif">llm-fw (reference)</text>
</svg>